<?xml version="1.0" encoding="UTF-8"?>
<svg id="Normal" xmlns="http://www.w3.org/2000/svg" viewBox="0 0 512 512">
  <defs>
    <style>
      .cls-1 {
        fill: #fff;
      }

      .cls-2 {
        fill: #22c55e;
      }
    </style>
  </defs>
  <path class="cls-1" d="M140.21,138.99c-4.34-4.74-8.98-3.47-10.3,2.82l-46.39,221.52c-1.74,8.29,2.48,11.04,9.36,6.11l150.63-107.77c3.03-2.17,3.45-6.19.93-8.93l-104.23-113.75Z"/>
  <path class="cls-1" d="M371.79,138.99c4.34-4.74,8.98-3.47,10.3,2.82l46.39,221.52c1.74,8.29-2.48,11.04-9.36,6.11l-150.63-107.77c-3.03-2.17-3.45-6.19-.93-8.93l104.23-113.75Z"/>
  <circle class="cls-2" cx="256" cy="232.65" r="9.73"/>
  <rect class="cls-1" x="240.45" y="321.23" width="31.11" height="54.65" rx="3" ry="3"/>
</svg>